<svg width="24" height="24" viewBox="0 0 24 24" fill="none" xmlns="http://www.w3.org/2000/svg">
<path d="M17 19.5H7C5.1 19.5 3.5 17.9 3.5 16V11.2C3.5 9.29995 5.1 7.69995 7 7.69995H17C18.9 7.69995 20.5 9.29995 20.5 11.2V16C20.5 17.9 18.9 19.5 17 19.5ZM7 8.69995C5.6 8.69995 4.5 9.89995 4.5 11.2V16C4.5 17.4 5.6 18.5 7 18.5H17C18.4 18.5 19.5 17.4 19.5 16V11.2C19.5 9.79995 18.4 8.69995 17 8.69995H7Z" fill="#333333"/>
<path d="M8.3 19.5C8 19.5 7.8 19.3 7.8 19V8.19995C7.8 7.89995 8 7.69995 8.3 7.69995C8.6 7.69995 8.8 7.89995 8.8 8.19995V19C8.8 19.3 8.5 19.5 8.3 19.5Z" fill="#333333"/>
<path d="M15.7 19.5C15.4 19.5 15.2 19.3 15.2 19V8.19995C15.2 7.89995 15.4 7.69995 15.7 7.69995C16 7.69995 16.2 7.89995 16.2 8.19995V19C16.2 19.3 16 19.5 15.7 19.5Z" fill="#333333"/>
<path d="M14.7 8.5C14.4 8.5 14.2 8.3 14.2 8V6.1C14.2 5.8 13.9 5.5 13.6 5.5H10.4C10.1 5.5 9.8 5.8 9.8 6.1V8C9.8 8.3 9.6 8.5 9.3 8.5C9 8.5 8.8 8.2 8.8 7.9V6.1C8.8 5.2 9.5 4.5 10.4 4.5H13.6C14.5 4.5 15.2 5.2 15.2 6.1V8C15.2 8.2 14.9 8.5 14.7 8.5Z" fill="#333333"/>
</svg>
