<svg width="24" height="24" viewBox="0 0 24 24" fill="none" xmlns="http://www.w3.org/2000/svg">
<path d="M12 12.5C11.7 12.5 11.5 12.3 11.5 12V10.2C11.5 9.8 11.2 9.5 10.7 9.5H6.3C5.8 9.5 5.5 9.8 5.5 10.2V12C5.5 12.3 5.3 12.5 5 12.5C4.7 12.5 4.5 12.3 4.5 12V10.2C4.5 9.3 5.3 8.5 6.3 8.5H10.8C11.7 8.5 12.5 9.3 12.5 10.2V12C12.5 12.3 12.3 12.5 12 12.5Z" fill="#333333"/>
<path d="M19 12.5C18.7 12.5 18.5 12.3 18.5 12V10.2C18.5 9.8 18.2 9.5 17.8 9.5H13.2C12.8 9.5 12.5 9.8 12.5 10.2V12C12.5 12.3 12.3 12.5 12 12.5C11.7 12.5 11.5 12.3 11.5 12V10.2C11.5 9.3 12.3 8.5 13.2 8.5H17.8C18.7 8.5 19.5 9.3 19.5 10.2V12C19.5 12.3 19.3 12.5 19 12.5Z" fill="#333333"/>
<path d="M20 17.5H4C3.7 17.5 3.5 17.3 3.5 17V13.5C3.5 12.4 4.3 11.5 5.4 11.5H18.7C19.7 11.5 20.6 12.4 20.6 13.5V17C20.5 17.3 20.3 17.5 20 17.5ZM4.5 16.5H19.5V13.5C19.5 13 19.1 12.5 18.6 12.5H5.4C4.9 12.5 4.5 12.9 4.5 13.5V16.5Z" fill="#333333"/>
<path d="M4 18.8C3.7 18.8 3.5 18.6 3.5 18.3V16C3.5 15.7 3.7 15.5 4 15.5C4.3 15.5 4.5 15.7 4.5 16V18.3C4.5 18.6 4.3 18.8 4 18.8Z" fill="#333333"/>
<path d="M20 18.8C19.7 18.8 19.5 18.6 19.5 18.3V16C19.5 15.7 19.7 15.5 20 15.5C20.3 15.5 20.5 15.7 20.5 16V18.3C20.5 18.6 20.3 18.8 20 18.8Z" fill="#333333"/>
<path d="M19.5 12.5C19.2 12.5 19 12.3 19 12V7.1C19 6.8 18.7 6.5 18.4 6.5H5.7C5.4 6.5 5.2 6.8 5.2 7.1V12C5.2 12.3 4.9 12.5 4.7 12.5C4.5 12.5 4.2 12.3 4.2 12V7.1C4.2 6.2 4.9 5.5 5.7 5.5H18.4C19.3 5.5 20 6.2 20 7.1V12C20 12.3 19.8 12.5 19.5 12.5Z" fill="#333333"/>
</svg>
