<svg width="24" height="24" viewBox="0 0 24 24" fill="none" xmlns="http://www.w3.org/2000/svg">
<path d="M8.2 20.5C8.1 20.5 8.1 20.5 8 20.5C7.7 20.4 7.4 20.2 7.2 19.9L6 17.9L4 16.8C3.7 16.7 3.5 16.4 3.4 16.1C3.3 15.8 3.4 15.4 3.7 15.2L4.8 14.2C5.2 13.9 5.6 13.8 6 13.8H6.9L9.8 10.5L5.8 8.1C5.5 7.9 5.2 7.5 5.1 7C5.1 6.5 5.2 6 5.6 5.7L6.1 5.2C6.5 4.8 7.1 4.7 7.6 4.8L13.9 6.5L16.1 4.3C16.6 3.7 17.4 3.5 18.2 3.5C19 3.6 19.7 4 20.1 4.6C20.8 5.7 20.7 7.2 19.7 8.1L17.6 10.2L19.3 16.5C19.4 17 19.3 17.6 18.9 18L18.4 18.5C18.1 18.8 17.6 19 17.1 18.9C16.6 18.8 16.2 18.6 15.9 18.2L13.5 14.2L10.3 17.2V18.1C10.3 18.5 10.2 19 9.8 19.4L8.9 20.3C8.8 20.4 8.5 20.5 8.2 20.5ZM7.2 5.7C7.1 5.7 6.9 5.8 6.8 5.9L6.3 6.4C6.2 6.5 6.1 6.7 6.1 6.9C6.1 7.1 6.2 7.2 6.4 7.3L10.9 10C11 10.1 11.1 10.2 11.1 10.4C11.1 10.5 11.1 10.7 11 10.8L7.6 14.7C7.5 14.8 7.4 14.9 7.2 14.9H6.1C5.7 14.9 5.6 14.9 5.5 15L4.4 16L6.5 17.2C6.6 17.2 6.6 17.3 6.7 17.4L8.2 19.5L9.2 18.6C9.3 18.5 9.4 18.4 9.4 18V16.9C9.4 16.8 9.5 16.6 9.6 16.5L13.4 13C13.5 12.9 13.7 12.8 13.8 12.9C13.9 12.9 14.1 13 14.2 13.1L16.9 17.6C17 17.8 17.1 17.8 17.3 17.9C17.5 17.9 17.6 17.9 17.8 17.7L18.3 17.2C18.4 17.1 18.5 16.8 18.4 16.7L16.5 10.1C16.5 9.9 16.5 9.7 16.6 9.6L18.9 7.3C19.5 6.7 19.6 5.8 19.2 5.1C18.9 4.8 18.5 4.5 18 4.5C17.5 4.5 17 4.6 16.7 5L14.3 7.4C14.2 7.5 14.1 7.5 13.9 7.5L7.3 5.7H7.2Z" fill="#333333"/>
</svg>
